<svg width="33" height="31" fill="none" xmlns="http://www.w3.org/2000/svg"><path d="M30.875 25.75v1.708a3.427 3.427 0 01-3.417 3.417H3.542a3.416 3.416 0 01-3.417-3.417V3.542c0-1.88 1.52-3.417 3.417-3.417h23.916a3.427 3.427 0 013.417 3.417V5.25H15.5a3.416 3.416 0 00-3.417 3.417v13.666c0 1.88 1.52 3.417 3.417 3.417h15.375zM15.5 22.333h17.083V8.667H15.5v13.666zm6.833-4.27a2.56 2.56 0 01-2.562-2.563 2.56 2.56 0 012.562-2.563 2.559 2.559 0 012.563 2.563 2.559 2.559 0 01-2.563 2.563z" fill="#654C3A"/></svg>